<svg width="20" height="20" viewBox="0 0 20 20" fill="none" xmlns="http://www.w3.org/2000/svg">
<path fill-rule="evenodd" clip-rule="evenodd" d="M8.35404 3.53716C5.46814 4.26999 3.33329 6.88524 3.33329 9.9991C3.33329 13.681 6.31806 16.6658 9.99996 16.6658C11.4943 16.6658 12.8737 16.1746 13.9858 15.3437C10.2725 14.5032 7.49996 11.1833 7.49996 7.21586C7.49996 5.89598 7.80728 4.64688 8.35404 3.53716ZM1.66663 9.9991C1.66663 5.39673 5.39759 1.66577 9.99996 1.66577L10.002 1.66577C10.3232 1.66585 10.6158 1.85052 10.754 2.14045C10.8923 2.43038 10.8516 2.77395 10.6494 3.02357C9.72176 4.16905 9.16663 5.6265 9.16663 7.21586C9.16663 10.8972 12.1505 13.8816 15.8316 13.8825C16.1528 13.8826 16.4454 14.0673 16.5836 14.3572C16.7219 14.6471 16.6812 14.9907 16.479 15.2403C14.9526 17.1251 12.617 18.3324 9.99996 18.3324C5.39759 18.3324 1.66663 14.6015 1.66663 9.9991Z" fill="#1D2026"/>
<path d="M12.5 5.83341C12.9602 5.83341 13.3333 5.46032 13.3333 5.00008C13.3333 4.53984 12.9602 4.16675 12.5 4.16675C12.0397 4.16675 11.6666 4.53984 11.6666 5.00008C11.6666 5.46032 12.0397 5.83341 12.5 5.83341Z" fill="#1D2026"/>
<path d="M16.6666 11.6667C16.6666 12.127 16.2935 12.5001 15.8333 12.5001C15.3731 12.5001 15 12.127 15 11.6667V10.8334H14.1666C13.7064 10.8334 13.3333 10.4603 13.3333 10.0001C13.3333 9.53984 13.7064 9.16675 14.1666 9.16675H15V8.33341C15 7.87318 15.3731 7.50008 15.8333 7.50008C16.2935 7.50008 16.6666 7.87318 16.6666 8.33341V9.16675H17.5C17.9602 9.16675 18.3333 9.53984 18.3333 10.0001C18.3333 10.4603 17.9602 10.8334 17.5 10.8334H16.6666V11.6667Z" fill="#1D2026"/>
</svg>
