<svg width="20" height="20" viewBox="0 0 20 20" fill="none" xmlns="http://www.w3.org/2000/svg">
<path fill-rule="evenodd" clip-rule="evenodd" d="M10.4166 1.66675C10.9911 1.66675 11.5113 1.89929 11.8882 2.27538C11.9028 2.28995 11.9172 2.30474 11.9314 2.31973C12.2645 2.6724 12.4758 3.14135 12.498 3.6593L12.4987 3.67679C12.4995 3.70112 12.5 3.72555 12.5 3.75008V3.76197C12.5 3.79584 12.5205 3.82629 12.5518 3.83927C12.5832 3.85225 12.6192 3.84527 12.6432 3.8213L12.6516 3.8129C12.669 3.79555 12.6865 3.77857 12.7043 3.76197L12.7172 3.75008C13.0991 3.39953 13.5802 3.21736 14.0651 3.20355C14.0857 3.20297 14.1063 3.20268 14.127 3.20271C14.6594 3.20327 15.1917 3.40666 15.5979 3.8129L16.1871 4.40215C16.5934 4.80839 16.7968 5.34064 16.7973 5.87308C16.7974 5.8937 16.7971 5.91432 16.7965 5.93493C16.7827 6.41987 16.6005 6.90091 16.25 7.28287L16.2381 7.29571C16.2215 7.31351 16.2045 7.33109 16.1871 7.34843L16.1787 7.35684C16.1548 7.38081 16.1478 7.41689 16.1608 7.4482C16.1737 7.47949 16.2042 7.50008 16.2381 7.50008H16.25C16.2745 7.50008 16.2989 7.50051 16.3232 7.50135L16.3407 7.50202C16.8587 7.52423 17.3276 7.73555 17.6803 8.06869C17.6953 8.08286 17.7101 8.09724 17.7247 8.11184C18.1008 8.48873 18.3333 9.00891 18.3333 9.58342V10.4167C18.3333 10.9912 18.1008 11.5114 17.7247 11.8883C17.7101 11.9029 17.6953 11.9173 17.6803 11.9315C17.3276 12.2646 16.8587 12.4759 16.3407 12.4981L16.3232 12.4988C16.2989 12.4997 16.2745 12.5001 16.25 12.5001H16.2381C16.2042 12.5001 16.1737 12.5207 16.1608 12.552C16.1478 12.5833 16.1548 12.6194 16.1787 12.6433L16.1871 12.6517C16.2045 12.6691 16.2215 12.6867 16.2381 12.7045L16.25 12.7173C16.6005 13.0992 16.7827 13.5803 16.7965 14.0652C16.7971 14.0858 16.7974 14.1065 16.7973 14.1271C16.7968 14.6595 16.5934 15.1918 16.1871 15.598L15.5979 16.1873C15.1917 16.5935 14.6594 16.7969 14.127 16.7975C14.1063 16.7975 14.0857 16.7972 14.0651 16.7966C13.5802 16.7828 13.0991 16.6006 12.7172 16.2501L12.7043 16.2382C12.6865 16.2216 12.669 16.2046 12.6516 16.1873L12.6432 16.1789C12.6192 16.1549 12.5832 16.1479 12.5518 16.1609C12.5205 16.1739 12.5 16.2043 12.5 16.2382V16.2501C12.5 16.2746 12.4995 16.299 12.4987 16.3234L12.498 16.3409C12.4758 16.8588 12.2645 17.3278 11.9314 17.6804C11.9172 17.6954 11.9028 17.7102 11.8882 17.7248C11.5113 18.1009 10.9911 18.3334 10.4166 18.3334H9.58329C9.00879 18.3334 8.48861 18.1009 8.11172 17.7248C8.09712 17.7102 8.08273 17.6954 8.06857 17.6804C7.73543 17.3278 7.52411 16.8588 7.5019 16.3409L7.50122 16.3234C7.50038 16.299 7.49996 16.2746 7.49996 16.2501V16.2382C7.49996 16.2043 7.47937 16.1739 7.44808 16.1609C7.41677 16.1479 7.38068 16.1549 7.35671 16.1789L7.34831 16.1873C7.33096 16.2046 7.31338 16.2216 7.29559 16.2382L7.28275 16.2501C6.90079 16.6006 6.41975 16.7828 5.93481 16.7966C5.9142 16.7972 5.89358 16.7975 5.87296 16.7975C5.34052 16.7969 4.80826 16.5935 4.40203 16.1873L3.81277 15.598C3.40654 15.1918 3.20315 14.6595 3.20258 14.1271C3.20256 14.1065 3.20284 14.0858 3.20343 14.0652C3.21723 13.5803 3.39941 13.0992 3.74996 12.7173L3.76185 12.7045C3.77845 12.6867 3.79543 12.6691 3.81277 12.6517L3.82118 12.6433C3.84515 12.6194 3.85213 12.5833 3.83915 12.552C3.82617 12.5207 3.79572 12.5001 3.76185 12.5001H3.74996C3.72543 12.5001 3.701 12.4997 3.67667 12.4988L3.65918 12.4981C3.14123 12.4759 2.67227 12.2646 2.31961 11.9315C2.30461 11.9173 2.28983 11.9029 2.27526 11.8883C1.89917 11.5114 1.66663 10.9912 1.66663 10.4167V9.58342C1.66663 9.00891 1.89917 8.48873 2.27526 8.11184C2.28983 8.09724 2.30461 8.08286 2.31961 8.06869C2.67227 7.73555 3.14123 7.52423 3.65918 7.50202L3.67667 7.50135C3.701 7.50051 3.72543 7.50008 3.74996 7.50008H3.76185C3.79572 7.50008 3.82617 7.47949 3.83915 7.4482C3.85213 7.41689 3.84515 7.38081 3.82118 7.35684L3.81277 7.34843C3.79543 7.33109 3.77845 7.31351 3.76185 7.29571L3.74996 7.28287C3.39941 6.90091 3.21723 6.41987 3.20343 5.93493C3.20284 5.91432 3.20256 5.8937 3.20258 5.87308C3.20315 5.34064 3.40654 4.80839 3.81277 4.40215L4.40203 3.8129C4.80826 3.40666 5.34052 3.20327 5.87296 3.20271C5.89358 3.20268 5.9142 3.20297 5.93481 3.20355C6.41975 3.21736 6.90079 3.39953 7.28275 3.75008L7.29559 3.76197C7.31339 3.77857 7.33096 3.79555 7.34831 3.8129L7.35671 3.8213C7.38068 3.84527 7.41677 3.85225 7.44808 3.83927C7.47937 3.82629 7.49996 3.79584 7.49996 3.76197V3.75008C7.49996 3.72555 7.50038 3.70112 7.50122 3.67679L7.5019 3.6593C7.52411 3.14135 7.73543 2.6724 8.06857 2.31973C8.08273 2.30474 8.09712 2.28995 8.11172 2.27538C8.48861 1.89929 9.00879 1.66675 9.58329 1.66675H10.4166ZM9.16663 16.2501C9.16663 16.4802 9.35317 16.6667 9.58329 16.6667H10.4166C10.6467 16.6667 10.8333 16.4802 10.8333 16.2501V16.2382C10.8333 15.5219 11.2676 14.8891 11.9134 14.6213C12.5606 14.353 13.3155 14.4942 13.8217 15.0004L13.8301 15.0088C13.9928 15.1715 14.2567 15.1715 14.4194 15.0088L15.0086 14.4195C15.1714 14.2568 15.1714 13.993 15.0086 13.8302L15.0002 13.8218C14.494 13.3156 14.3529 12.5607 14.6212 11.9135C14.889 11.2677 15.5218 10.8334 16.2381 10.8334H16.25C16.4801 10.8334 16.6666 10.6469 16.6666 10.4167V9.58342C16.6666 9.3533 16.4801 9.16675 16.25 9.16675H16.2381C15.5218 9.16675 14.889 8.73243 14.6212 8.08663C14.3529 7.43947 14.494 6.68452 15.0002 6.17832L15.0086 6.16992C15.1714 6.0072 15.1714 5.74338 15.0086 5.58066L14.4194 4.99141C14.2567 4.82869 13.9928 4.82869 13.8301 4.99141L13.8217 4.99981C13.3155 5.506 12.5606 5.64717 11.9134 5.37882C11.2676 5.11101 10.8333 4.47826 10.8333 3.76197V3.75008C10.8333 3.51996 10.6467 3.33341 10.4166 3.33341H9.58329C9.35317 3.33341 9.16663 3.51996 9.16663 3.75008V3.76197C9.16663 4.47826 8.73232 5.11101 8.08649 5.37882C7.43934 5.64717 6.68439 5.506 6.1782 4.99981L6.1698 4.99141C6.00708 4.82869 5.74326 4.82869 5.58054 4.99141L4.99129 5.58066C4.82857 5.74338 4.82857 6.0072 4.99129 6.16992L4.99969 6.17832C5.50589 6.68452 5.64705 7.43947 5.37869 8.08663C5.11088 8.73243 4.47814 9.16675 3.76185 9.16675H3.74996C3.51984 9.16675 3.33329 9.3533 3.33329 9.58342V10.4167C3.33329 10.6469 3.51984 10.8334 3.74996 10.8334H3.76185C4.47814 10.8334 5.11088 11.2677 5.37869 11.9135C5.64705 12.5607 5.50589 13.3156 4.99969 13.8218L4.99129 13.8302C4.82857 13.993 4.82857 14.2568 4.99129 14.4195L5.58054 15.0088C5.74326 15.1715 6.00708 15.1715 6.1698 15.0088L6.1782 15.0004C6.68439 14.4942 7.43934 14.353 8.08649 14.6213C8.7323 14.8891 9.16663 15.5219 9.16663 16.2382V16.2501Z" fill="#4E5566"/>
<path fill-rule="evenodd" clip-rule="evenodd" d="M9.99996 11.6667C10.9204 11.6667 11.6666 10.9206 11.6666 10.0001C11.6666 9.07961 10.9204 8.33341 9.99996 8.33341C9.07948 8.33341 8.33329 9.07961 8.33329 10.0001C8.33329 10.9206 9.07948 11.6667 9.99996 11.6667ZM9.99996 13.3334C11.8409 13.3334 13.3333 11.841 13.3333 10.0001C13.3333 8.15913 11.8409 6.66675 9.99996 6.66675C8.15901 6.66675 6.66663 8.15913 6.66663 10.0001C6.66663 11.841 8.15901 13.3334 9.99996 13.3334Z" fill="#4E5566"/>
</svg>
