<svg width="46" height="46" viewBox="0 0 46 46" fill="none" xmlns="http://www.w3.org/2000/svg">
<path d="M45.9167 33.4166C45.9167 40.3124 40.3126 45.9166 33.4167 45.9166V42.7916C38.6251 42.7916 42.7917 38.6249 42.7917 33.4166H45.9167ZM0.0834146 12.5833C0.0834146 5.68742 5.68758 0.083252 12.5834 0.083252V3.20825C7.37508 3.20825 3.20841 7.37492 3.20841 12.5833H0.0834146ZM14.6667 6.99992L5.10425 16.5833C-1.60409 23.2916 -1.60409 34.1874 5.10425 40.8958C11.8126 47.6041 22.7084 47.6041 29.4167 40.8958L44.1459 26.1249C45.1667 25.1458 45.1667 23.4999 44.1459 22.4791C43.904 22.2366 43.6166 22.0442 43.3003 21.9129C42.9839 21.7816 42.6447 21.714 42.3022 21.714C41.9596 21.714 41.6205 21.7816 41.3041 21.9129C40.9877 22.0442 40.7003 22.2366 40.4584 22.4791L31.2501 31.6874L29.7709 30.2083L43.3959 16.5833C44.4168 15.5624 44.4168 13.9166 43.3959 12.8958C42.3751 11.8749 40.7084 11.8749 39.6667 12.8958L27.5626 25.0833L26.1251 23.5624L40.4376 9.20825C41.4584 8.18742 41.4584 6.54158 40.4376 5.52075C39.4168 4.49992 37.7709 4.49992 36.7501 5.52075L22.3959 19.8749L20.9167 18.4166L32.3751 6.99992C33.4168 5.97909 33.4168 4.33325 32.3751 3.31242C31.3334 2.29158 29.7084 2.29158 28.6876 3.31242L12.8126 19.1874C14.0569 20.7903 14.6736 22.7921 14.547 24.8173C14.4204 26.8425 13.5593 28.7519 12.1251 30.1874L10.6459 28.7083C11.8163 27.5364 12.4737 25.9478 12.4737 24.2916C12.4737 22.6353 11.8163 21.0468 10.6459 19.8749L9.91675 19.1458L18.3959 10.6666C19.4167 9.64575 19.4167 7.99992 18.3959 6.97908C17.3542 5.97908 15.7084 5.97909 14.6667 6.99992Z" fill="#FFB608"/>
</svg>
